# xmcd CD database file
# Copyright (C) 1993-1998 Ti Kan
#
# Track frame offsets:
#	150
#	21422
#	47037
#	73497
#	90807
#	105937
#	127450
#	150010
#	166195
#	181615
#
# Disc length: 2686 seconds
#
# Revision: 0
# Processed by: cddbd v1.4b41PL1 Copyright (c) Steve Scherf et al.
# Submitted via: CDmax 1.5
#
DISCID=730a7c0a
DTITLE=simply red - holding back the years - live in basel 1990
DYEAR=1900
DGENRE=
TTITLE0=turn it up
TTITLE1=sad old red
TTITLE2=enough
TTITLE3=more
TTITLE4=holding back the years
TTITLE5=something get me started
TTITLE6=groovy situation
TTITLE7=if you don't know me by now
TTITLE8=everytime we say goodbye
TTITLE9=it's only love
EXTD=
EXTT0=
EXTT1=
EXTT2=
EXTT3=
EXTT4=
EXTT5=
EXTT6=
EXTT7=
EXTT8=
EXTT9=
PLAYORDER=
